<svg xmlns="http://www.w3.org/2000/svg" xmlns:xlink="http://www.w3.org/1999/xlink" version="1.1" style="" width="353"
	height="215">
	<rect id="backgroundrect" width="100%" height="100%" x="0" y="0" fill="none" stroke="none" />
	<style type="text/css">
	.st0{fill: white;}
	.st1{fill: #90B0A1;}
</style>

<g class="currentLayer" style=""><title>Layer 1</title><g id="svg_1" class="">
	<path class="st0" d="M60.420009765625,98.11000030517579 l-0.07,1.51 l0,0 l-0.05000000000000001,-1.52 c-0.21000000000000002,-0.030000000000000006 -0.41000000000000003,-0.05000000000000001 -0.6200000000000001,-0.05000000000000001 c-21.24,0 -38.53,-17.28 -38.53,-38.53 s17.28,-38.53 38.53,-38.53 c5.28,0 9.57,-4.29 9.57,-9.57 c0,-5.28 -4.29,-9.57 -9.57,-9.57 c-31.8,0 -57.67,25.87 -57.67,57.67 c0,30.84 24.12,56.14 55.03,57.62 c0.21000000000000002,0.030000000000000006 0.42000000000000004,0.05000000000000001 0.6300000000000001,0.05000000000000001 c21.24,0 38.53,17.28 38.53,38.53 c0,21.24 -17.28,38.53 -38.53,38.53 s-38.53,-17.28 -38.53,-38.53 c0,-5.28 -4.29,-9.57 -9.57,-9.57 s-9.57,4.29 -9.57,9.57 c0,31.8 25.87,57.67 57.66,57.67 c31.8,0 57.67,-25.87 57.67,-57.67 C115.330009765625,124.87000030517578 91.21000976562499,99.57000030517577 60.420009765625,98.11000030517579 z" id="svg_2"/>
	<path class="st1" d="M193.760009765625,110.75000030517577 l-8.41,-9.79 c1.37,-3.74 2.05,-7.66 2.05,-11.68 c0,-4.24 -3.45,-7.69 -7.69,-7.69 c-3.15,0 -5.85,1.9 -7.05,4.61 l-14.15,-16.47 c15.92,-3.05 27.78,-17.01 27.78,-33.69 c0,-18.92 -15.39,-34.3 -34.31,-34.3 c-4.24,0 -7.69,3.45 -7.69,7.69 s3.45,7.69 7.69,7.69 c10.44,0 18.93,8.49 18.93,18.93 c0,10.44 -8.49,18.93 -18.93,18.93 c-0.24000000000000002,0 -0.47000000000000003,0.020000000000000004 -0.55,0.04000000000000001 c-18.31,0.8800000000000001 -32.64,15.93 -32.64,34.26 c0,18.92 15.39,34.31 34.31,34.31 c8.73,0 17.11,-3.35 23.44,-9.28 l5.55,6.46 c2.71,3.17 7.67,3.54 10.85,0.8200000000000001 C196.150009765625,118.83000030517579 196.520009765625,113.97000030517577 193.760009765625,110.75000030517577 zM166.49000976562502,102.63000030517577 c-3.5300000000000002,3.5300000000000002 -8.4,5.59 -13.41,5.59 c-10.44,0 -18.93,-8.49 -18.93,-18.93 c0,-6.05 2.92,-11.72 7.75,-15.26 L166.49000976562502,102.63000030517577 z" id="svg_3"/>
	<path class="st0" d="M344.040009765625,3.0517577442878974e-7 c-4.91,0 -8.91,3.89 -8.91,8.67 V156.63000030517577 c0,0.52 0.06000000000000001,1.02 0.14,1.23 c-1.51,21.94 -19.9,39.12 -41.87,39.12 c-22.22,0 -40.42,-17.35 -41.87,-39.2 V11.310000305175777 c0,-5.22 -3.99,-9.47 -8.91,-9.47 c-4.91,0 -8.91,4.25 -8.91,9.47 v146.47 c-1.46,21.85 -19.66,39.2 -41.88,39.2 c-21.97,0 -40.37,-17.18 -41.89,-38.85 c0.09000000000000002,-0.49000000000000005 0.15000000000000002,-0.99 0.15000000000000002,-1.5 v-1.82 c0,-4.78 -3.99,-8.67 -8.91,-8.67 c-4.91,0 -8.91,3.89 -8.91,8.67 v1.82 c0,0.5900000000000001 0.06000000000000001,1.19 0.16000000000000003,1.59 c1.7200000000000002,31.56 27.8,56.29 59.38,56.29 c20.69,0 39.97,-10.88 50.78,-28.51 c10.81,17.63 30.1,28.51 50.78,28.51 c31.58,0 57.66,-24.72 59.36,-56.12 c0.12000000000000001,-0.5900000000000001 0.19000000000000003,-1.18 0.19000000000000003,-1.7600000000000002 V8.67000030517579 C352.950009765625,3.890000305175789 348.950009765625,3.0517577442878974e-7 344.040009765625,3.0517577442878974e-7 z" id="svg_4"/>
</g></g></svg>